# xmcd
#
# Track frame offsets:
#	150
#	12838
#	27855
#	40302
#	53069
#	68451
#	82293
#	101382
#	132089
#	144341
#	160859
#	191450
#	212063
#	226500
#
# Disc length: 3342 seconds
#
# Revision: 3
# Processed by: cddbd v1.5.2PL0 Copyright (c) Steve Scherf et al.
# Submitted via: audiograbber 1.83.01
#
DISCID=aa0d0c0e
DTITLE=Various Artist - Jazz Gold CD 3
DYEAR=2006
DGENRE=Jazz
TTITLE0=Quincy Jones - Soul Bossa Nova
TTITLE1=The Swingle Singers - Suite in D: Aria
TTITLE2=Tamba Trio - Mas Que Nada
TTITLE3=Dinah Washington - Mad About the Boy
TTITLE4=Quincy Jones - The Pink Panter
TTITLE5=Nina Simone - My Baby Just Cares for Me
TTITLE6=Stan Getz - Desafinado
TTITLE7=Sonny Rollins - St. Thomas
TTITLE8=Dinah Washington - Unforgettable
TTITLE9=Quincy Jones - Oh Happy Day
TTITLE10=Donald Byrd - Cantaloupe Island
TTITLE11=Helen Merrill - I'm a Fool to Want You
TTITLE12=Madeleine Peyroux - Don't Wait Too Long
TTITLE13=Jevetta Steele - Calling You
EXTD=YEAR: 2006
EXTT0=
EXTT1=
EXTT2=
EXTT3=
EXTT4=
EXTT5=
EXTT6=
EXTT7=
EXTT8=
EXTT9=
EXTT10=
EXTT11=
EXTT12=
EXTT13=
PLAYORDER=
